<svg id="visual" viewBox="0 0 900 450" width="900" height="450" xmlns="http://www.w3.org/2000/svg" xmlns:xlink="http://www.w3.org/1999/xlink" version="1.1"><path d="M863 450L818 450L818 424L827 424L827 397L854 397L854 371L791 371L791 344L809 344L809 318L782 318L782 291L773 291L773 265L872 265L872 238L845 238L845 212L818 212L818 185L872 185L872 159L872 159L872 132L872 132L872 106L836 106L836 79L800 79L800 53L836 53L836 26L845 26L845 0L900 0L900 26L900 26L900 53L900 53L900 79L900 79L900 106L900 106L900 132L900 132L900 159L900 159L900 185L900 185L900 212L900 212L900 238L900 238L900 265L900 265L900 291L900 291L900 318L900 318L900 344L900 344L900 371L900 371L900 397L900 397L900 424L900 424L900 450L900 450Z" fill="#5930a2"></path><path d="M773 450L782 450L782 424L773 424L773 397L809 397L809 371L701 371L701 344L674 344L674 318L656 318L656 291L737 291L737 265L737 265L737 238L755 238L755 212L710 212L710 185L755 185L755 159L773 159L773 132L728 132L728 106L800 106L800 79L746 79L746 53L728 53L728 26L800 26L800 0L846 0L846 26L837 26L837 53L801 53L801 79L837 79L837 106L873 106L873 132L873 132L873 159L873 159L873 185L819 185L819 212L846 212L846 238L873 238L873 265L774 265L774 291L783 291L783 318L810 318L810 344L792 344L792 371L855 371L855 397L828 397L828 424L819 424L819 450L864 450Z" fill="#732898"></path><path d="M503 450L656 450L656 424L566 424L566 397L665 397L665 371L350 371L350 344L431 344L431 318L377 318L377 291L314 291L314 265L584 265L584 238L530 238L530 212L584 212L584 185L440 185L440 159L530 159L530 132L494 132L494 106L602 106L602 79L584 79L584 53L557 53L557 26L647 26L647 0L801 0L801 26L729 26L729 53L747 53L747 79L801 79L801 106L729 106L729 132L774 132L774 159L756 159L756 185L711 185L711 212L756 212L756 238L738 238L738 265L738 265L738 291L657 291L657 318L675 318L675 344L702 344L702 371L810 371L810 397L774 397L774 424L783 424L783 450L774 450Z" fill="#87218d"></path><path d="M413 450L386 450L386 424L305 424L305 397L395 397L395 371L224 371L224 344L296 344L296 318L188 318L188 291L197 291L197 265L332 265L332 238L341 238L341 212L341 212L341 185L323 185L323 159L170 159L170 132L395 132L395 106L323 106L323 79L260 79L260 53L269 53L269 26L296 26L296 0L648 0L648 26L558 26L558 53L585 53L585 79L603 79L603 106L495 106L495 132L531 132L531 159L441 159L441 185L585 185L585 212L531 212L531 238L585 238L585 265L315 265L315 291L378 291L378 318L432 318L432 344L351 344L351 371L666 371L666 397L567 397L567 424L657 424L657 450L504 450Z" fill="#961b81"></path><path d="M215 450L233 450L233 424L197 424L197 397L206 397L206 371L152 371L152 344L170 344L170 318L89 318L89 291L80 291L80 265L242 265L242 238L242 238L242 212L215 212L215 185L251 185L251 159L98 159L98 132L197 132L197 106L179 106L179 79L134 79L134 53L224 53L224 26L161 26L161 0L297 0L297 26L270 26L270 53L261 53L261 79L324 79L324 106L396 106L396 132L171 132L171 159L324 159L324 185L342 185L342 212L342 212L342 238L333 238L333 265L198 265L198 291L189 291L189 318L297 318L297 344L225 344L225 371L396 371L396 397L306 397L306 424L387 424L387 450L414 450Z" fill="#a21975"></path><path d="M125 450L152 450L152 424L89 424L89 397L143 397L143 371L98 371L98 344L107 344L107 318L62 318L62 291L53 291L53 265L134 265L134 238L170 238L170 212L143 212L143 185L161 185L161 159L62 159L62 132L107 132L107 106L89 106L89 79L53 79L53 53L116 53L116 26L107 26L107 0L162 0L162 26L225 26L225 53L135 53L135 79L180 79L180 106L198 106L198 132L99 132L99 159L252 159L252 185L216 185L216 212L243 212L243 238L243 238L243 265L81 265L81 291L90 291L90 318L171 318L171 344L153 344L153 371L207 371L207 397L198 397L198 424L234 424L234 450L216 450Z" fill="#aa1c6a"></path><path d="M0 450L0 450L0 424L0 424L0 397L0 397L0 371L0 371L0 344L0 344L0 318L0 318L0 291L0 291L0 265L0 265L0 238L0 238L0 212L0 212L0 185L0 185L0 159L0 159L0 132L0 132L0 106L0 106L0 79L0 79L0 53L0 53L0 26L0 26L0 0L108 0L108 26L117 26L117 53L54 53L54 79L90 79L90 106L108 106L108 132L63 132L63 159L162 159L162 185L144 185L144 212L171 212L171 238L135 238L135 265L54 265L54 291L63 291L63 318L108 318L108 344L99 344L99 371L144 371L144 397L90 397L90 424L153 424L153 450L126 450Z" fill="#b0235f"></path></svg>